<svg width="386" height="386" viewBox="0 0 386 386" fill="none" xmlns="http://www.w3.org/2000/svg">
<rect width="386" height="386" fill="white"/>
<path d="M173.4 20.0974C163.533 27.964 148.333 41.2974 136.333 52.764L126.867 61.6974L128.6 73.4307C129.533 79.8307 131.267 92.3641 132.333 101.164C133.533 109.964 134.733 118.231 135.133 119.431C135.667 121.031 135.133 121.831 133.667 121.831C131.133 121.831 131 121.164 137.933 143.164C140.467 151.564 142.867 159.297 143.133 160.097C143.4 161.031 144.467 161.431 145.667 161.031C146.867 160.497 147.533 159.431 147.133 158.497C146.733 157.431 147.4 156.364 148.467 155.964C149.933 155.431 149.8 154.364 147.533 150.497C143.933 144.497 134.733 93.2974 134.2 76.7641C133.8 65.0307 133.8 64.8974 138.733 58.2307C143.533 51.6974 154.6 41.8307 171.667 29.2974C176.467 25.6974 181.267 21.6974 182.6 20.364C184.6 17.964 185.533 18.6307 202.333 36.4974C212.067 46.764 222.867 57.2974 226.333 59.964L232.733 64.7641L227.8 75.1641C225.133 80.7641 214.333 102.364 203.667 122.897C181.4 166.097 185.933 161.964 160.067 162.364L143.267 162.497L137.667 168.897C131.8 175.697 131 178.231 133.8 182.497C134.867 183.964 135.667 186.364 135.667 187.831C135.667 190.231 136.6 190.631 141.933 190.897C145.267 191.031 148.333 191.431 148.733 191.831C149.133 192.231 149.667 200.497 150.067 210.231L150.6 227.831L141.667 247.031C126.867 279.031 121 293.697 121 298.497C121 301.031 121.533 303.164 122.067 303.164C123.4 303.164 123.4 303.031 177.667 189.831C202.867 137.297 226.733 87.8307 230.733 79.6974C234.733 71.5641 238.333 64.0974 238.6 63.0307C238.867 61.8307 229.667 52.6307 215 39.6974C201.8 27.964 190.2 17.2974 189.133 16.0974C186.067 12.364 181.533 13.564 173.4 20.0974ZM177.933 173.431C171.8 185.297 171.533 185.431 154.733 186.231C139.933 187.031 139.667 186.897 139.667 184.097C139.667 182.497 139.133 180.364 138.467 179.297C137.667 178.097 138.2 175.964 140.067 173.031L143 168.497H156.333C163.667 168.364 172.067 167.831 175 167.297C177.933 166.764 180.467 166.497 180.733 166.631C181 166.764 179.667 169.831 177.933 173.431ZM166.733 194.764C165.667 197.564 162.867 203.431 160.6 207.831C156.867 215.297 156.467 215.564 155.533 212.497C155 210.631 154.6 205.164 154.467 200.231C154.333 190.497 154.067 190.631 165.267 189.964L168.867 189.831L166.733 194.764Z" fill="black"/>
<path d="M177.4 51.8307C175 53.5641 174.333 55.2974 174.333 59.6974C174.333 64.8974 174.733 65.6974 178.333 67.1641C181.933 68.6307 182.867 68.4974 187 65.6974C192.467 61.9641 192.6 61.0307 188.6 55.0307C185.133 49.8307 181.667 48.8974 177.4 51.8307ZM185 56.6307C187.133 60.3641 185.8 63.1641 181.8 63.1641C178.2 63.1641 176.6 59.5641 178.6 55.9641C180.2 53.0307 183.267 53.2974 185 56.6307Z" fill="black"/>
<path d="M261 81.8307C261 82.4974 260.2 83.164 259.267 83.164C258.467 83.164 256.2 86.8974 254.467 91.4307C249.133 105.297 195.8 210.764 195.667 207.431C195.667 205.697 194.867 204.497 193.533 204.497C191.667 204.497 191.4 205.564 192.2 210.764C193 216.764 192.467 218.097 173.533 254.897C162.867 275.831 151.4 297.697 148.067 303.564C144.6 309.697 141.933 316.364 141.667 319.164C141.267 323.964 141.8 324.631 153.4 334.631C160.067 340.497 168.6 347.831 172.333 351.164C189.133 366.497 197 372.631 199.133 372.231C202.333 371.697 251.8 319.831 251.933 316.897C251.933 315.564 249.533 295.297 246.6 271.831C241.533 231.831 236.733 185.031 237.267 180.497C237.667 177.697 235.667 163.564 234.2 157.431C233 152.631 233.533 150.631 243.133 128.764C248.733 115.831 256.067 99.964 259.267 93.564C262.333 87.164 265 81.564 265 81.164C265 80.764 264.067 80.4974 263 80.4974C261.933 80.4974 261 81.0307 261 81.8307ZM230.333 181.431C231.8 190.764 234.733 213.164 236.867 231.164C241 264.231 245.8 300.897 247.133 310.231C247.933 314.897 247.4 315.831 238.733 325.431C223.667 342.364 207.667 359.031 202.2 363.297L197.133 367.297L171.133 343.031C147.133 320.897 145.133 318.631 146.6 315.964C147.4 314.497 154.2 302.097 161.667 288.497C169.133 274.897 179 256.764 183.533 248.231C188.2 239.564 192.467 232.097 193.267 231.697C194.2 231.164 194.467 244.631 194.2 273.297C193.667 316.097 193.8 316.231 198.067 315.297C198.6 315.297 199 293.697 199 267.431V219.697L213 191.697C220.733 176.231 227.133 163.831 227.4 163.964C227.667 164.097 229 171.964 230.333 181.431Z" fill="black"/>
</svg>
