<svg width="16px" height="16px" viewBox="0 0 43 42" fill="none" xmlns="http://www.w3.org/2000/svg"><g clip-path="url(#clip0_1320_6)"><rect width="42.6667" height="41.3333" fill="white"></rect><path d="M9.73312 1.46637C24.3998 4.93303 35.5998 16.133 40.7998 32.6664C42.3998 37.4664 42.5331 36.2664 42.5331 18.933L42.6664 -0.000298868L23.7331 0.133034C9.46645 0.266368 5.86645 0.533032 9.73312 1.46637Z" fill="#002C75"></path><path d="M0 25.333V41.333H16C24.8 41.333 32 41.0663 32 40.6663C32 40.2663 30.4 39.333 28.4 38.533L24.6667 37.0663L27.7333 35.5997C31.6 33.8663 31.4667 31.9997 27.3333 31.9997C23.6 31.9997 23.0667 30.3997 26 27.9997C29.0667 25.4663 28.4 23.8663 24.8 25.333C20.5333 26.933 19.4667 25.5997 22 21.733C23.7333 19.0663 23.7333 18.6663 22.1333 18.6663C21.0667 18.6663 19.7333 19.1997 19.3333 19.9997C17.4667 22.933 15.7333 21.1997 16.5333 17.333C17.3333 13.1997 15.2 11.5997 13.8667 15.333C12.5333 18.7997 9.33333 17.5997 9.2 13.5997V9.99967L7.06667 12.933C4.4 16.933 2.66667 16.7997 2.66667 12.6663C2.66667 10.7997 2.13333 9.33301 1.33333 9.33301C0.533333 9.33301 0 15.5997 0 25.333ZM18.6667 23.8663C18.6667 25.5997 14.8 28.533 13.7333 27.5997C12.8 26.533 15.7333 22.6663 17.4667 22.6663C18.1333 22.6663 18.6667 23.1997 18.6667 23.8663ZM11.7333 26.933C11.4667 28.6663 10.5333 29.8663 9.6 29.5997C8.8 29.4663 8 30.2663 8 31.333C8 32.2663 6.93333 33.733 5.73333 34.533C4.4 35.1997 3.86667 36.2663 4.4 36.933C5.06667 37.4663 6.13333 36.933 6.8 35.5997C7.6 34.3997 9.06667 33.333 10 33.333C11.0667 33.333 11.8667 32.533 11.7333 31.733C11.4667 30.7997 12.6667 29.8663 14.4 29.5997C16 29.333 17.3333 29.5997 17.3333 30.133C17.3333 31.8663 12.9333 35.9997 11.0667 35.9997C10.1333 35.9997 9.46667 36.6663 9.6 37.5997C10.1333 39.9997 5.6 40.3997 3.2 38.133C0.933333 35.733 1.33333 31.1997 3.73333 31.5997C4.66667 31.8663 5.33333 31.333 5.33333 30.6663C5.33333 29.0663 9.6 24.2663 11.0667 24.133C11.7333 23.9997 12 25.333 11.7333 26.933Z" fill="#002C75"></path></g><defs><clipPath id="clip0_1320_6"><rect width="42.6667" height="41.3333" fill="white"></rect></clipPath></defs></svg>