<svg width="264" height="264" viewBox="0 0 264 264" fill="none" xmlns="http://www.w3.org/2000/svg">
<path d="M51.198 224.91V147.81L65.9788 231.079L90.0434 243.072L105.512 173.852V249.584L132.67 262.945V135.132L91.4182 115.599L78.3555 176.594L65.1788 103.035L24.1545 83.3896V211.318L51.198 224.91Z" fill="#FBBD16"/>
<path d="M136.45 135.099L179.537 112.71V205.457L239.123 174.62L239.352 209.571L136.567 263.597L136.45 135.099Z" fill="#452E7F"/>
<path d="M119.079 0.326172L88.611 27.2646C88.611 27.2646 148.057 57.8201 155.278 61.4312C162.5 65.0413 172.778 71.9858 161.667 82.2646C150.555 92.5423 138.333 91.1534 130 86.9868C121.667 82.8201 59.9999 51.709 59.9999 51.709L28.6121 78.3747C28.6121 78.3747 89.1666 109.208 99.1676 114.486C109.168 119.765 146.39 132.819 181.668 105.319C216.945 77.8191 211.946 67.8191 211.946 65.8747C211.946 63.9302 211.113 53.6524 205.002 47.2635C198.89 40.8747 181.113 31.708 173.613 27.8191C166.113 23.9302 119.079 0.326172 119.079 0.326172Z" fill="#962444"/>
<path d="M238.075 156.797C238.075 161.313 234.53 164.856 229.917 164.856C225.353 164.856 221.712 161.312 221.712 156.797C221.712 152.377 225.353 148.833 229.917 148.833C234.531 148.834 238.075 152.377 238.075 156.797ZM223.752 156.797C223.752 160.341 226.374 163.158 229.967 163.158C233.463 163.158 236.036 160.341 236.036 156.845C236.036 153.3 233.463 150.435 229.917 150.435C226.374 150.436 223.752 153.301 223.752 156.797ZM228.656 160.972H226.81V153.01C227.539 152.862 228.559 152.766 229.87 152.766C231.374 152.766 232.055 153.01 232.636 153.349C233.074 153.689 233.413 154.32 233.413 155.097C233.413 155.969 232.734 156.65 231.763 156.942V157.039C232.54 157.331 232.977 157.912 233.219 158.982C233.462 160.196 233.608 160.681 233.801 160.972H231.811C231.568 160.681 231.422 159.952 231.179 159.03C231.033 158.156 230.548 157.767 229.527 157.767H228.655L228.656 160.972ZM228.704 156.457H229.578C230.598 156.457 231.423 156.118 231.423 155.293C231.423 154.564 230.89 154.078 229.723 154.078C229.237 154.078 228.898 154.127 228.703 154.176V156.457H228.704Z" fill="#6D6E71"/>
</svg>
