<svg width="16px" height="16px" viewBox="0 0 262 262" fill="none" xmlns="http://www.w3.org/2000/svg"><g clip-path="url(#clip0_1309_386)"><path fill-rule="evenodd" clip-rule="evenodd" d="M179.251 115.692L133.707 172.294L126.862 189.143C124.79 196.513 130.395 204.326 133.411 207.911C134.672 209.391 134.319 212.546 134.092 214.956L127.125 219.155L116.331 230.212L105.801 253.116L128.705 261.54L199.259 223.367L199.522 210.994C198.38 210.205 197.824 208.831 197.153 207.571C194.209 194.072 194.17 133.263 191.098 129.119L179.251 115.692Z" fill="#E2C0B1" stroke="black" stroke-width="2.90044" stroke-linecap="round" stroke-linejoin="round"></path><path fill-rule="evenodd" clip-rule="evenodd" d="M146.385 217.731C146.385 217.731 145.247 215.847 146.757 215.032C148.28 214.21 158.917 205.199 159.75 202.813C160.482 200.717 161.72 198.352 163.418 195.858L163.325 189.715" fill="#E2C0B1"></path><path d="M146.385 217.731C146.385 217.731 145.247 215.847 146.757 215.032C148.28 214.21 158.917 205.199 159.75 202.813C160.482 200.717 161.72 198.352 163.418 195.858L163.325 189.715" stroke="black" stroke-width="2.90044" stroke-linecap="round" stroke-linejoin="round"></path><path fill-rule="evenodd" clip-rule="evenodd" d="M80.781 70.334C82.5343 72.9144 92.2441 65.4581 95.8918 65.1093L109.948 64.084L171.404 68.1699L179.096 62.4675C149.902 40.5702 101.417 13.3184 54 0C64.7451 31.8058 73.7218 47.521 80.781 70.334Z" fill="#FEF200" stroke="black" stroke-width="2.90044" stroke-linecap="round" stroke-linejoin="round"></path><path fill-rule="evenodd" clip-rule="evenodd" d="M181.716 141.762C185.881 134.222 192.409 127.155 194.211 119.142C195.174 107.9 194.859 97.6163 194.211 87.5823C193.964 82.824 188.05 67.9633 178.916 62.0541C171.857 56.8444 149.036 55.4655 136.476 55.8067C127.895 56.5189 108.327 61.9846 94.2524 65.2855C91.1779 66.8828 90.6692 70.2568 89.7519 73.1172C89.2146 79.7307 90.2769 88.3877 88.1375 92.9571C83.8524 99.663 80.0725 105.523 74.1686 112.361C71.4226 117.53 66.1516 124.106 60.1998 131.764C59.4271 133.844 62.2187 137.933 64.4649 138.772C67.8321 138.54 78.4886 139.933 80.4888 138.077C82.2109 135.109 86.8157 136.641 85.3071 139.328L84.726 143.951C80.0299 146.28 75.3953 148.71 72.3872 153.852C74.1175 159.336 74.8643 164.82 81.527 170.304V173.808L69.2637 182.586C67.5733 184.287 66.5024 186.235 66.2477 188.51L66.6786 194.327C68.75 197.708 75.5474 198.285 80.0352 201.651C82.0257 203.005 97.688 202.238 100.07 201.651C104.502 198.909 107.029 194.833 111.703 192.603L162.329 175.8C164.326 175.151 168.701 171.147 168.791 168.906L169.222 148.872C169.182 147.418 167.338 146.265 166.206 144.994" fill="#E1C1B2"></path><path d="M181.716 141.762C185.881 134.222 192.409 127.155 194.211 119.142C195.174 107.9 194.859 97.6163 194.211 87.5823C193.964 82.824 188.05 67.9633 178.916 62.0541C171.857 56.8444 149.036 55.4655 136.476 55.8067C127.895 56.5189 108.327 61.9846 94.2524 65.2855C91.1779 66.8828 90.6692 70.2568 89.7519 73.1172C89.2146 79.7307 90.2769 88.3877 88.1375 92.9571C83.8524 99.663 80.0725 105.523 74.1686 112.361C71.4226 117.53 66.1516 124.106 60.1998 131.764C59.4271 133.844 62.2187 137.933 64.4649 138.772C67.8321 138.54 78.4886 139.933 80.4888 138.077C82.2109 135.109 86.8157 136.641 85.3071 139.328L84.726 143.951C80.0299 146.28 75.3953 148.71 72.3872 153.852C74.1175 159.336 74.8643 164.82 81.527 170.304V173.808L69.2637 182.586C67.5733 184.287 66.5024 186.235 66.2477 188.51L66.6786 194.327C68.75 197.708 75.5474 198.285 80.0352 201.651C82.0257 203.005 97.688 202.238 100.07 201.651C104.502 198.909 107.029 194.833 111.703 192.603L162.329 175.8C164.326 175.151 168.701 171.147 168.791 168.906L169.222 148.872C169.182 147.418 167.338 146.265 166.206 144.994" stroke="black" stroke-width="2.90044" stroke-linecap="round" stroke-linejoin="round"></path><path d="M152.593 91.4088C152.514 88.8042 152.377 86.0639 152.95 84.9789L156.851 84.1165C157.975 82.941 159.056 81.3171 160.614 79.9109L161.372 74.8591L164.319 72.6699" stroke="black" stroke-width="2.90044" stroke-linecap="round" stroke-linejoin="round"></path><path d="M133.541 167.021C135.208 160.329 148.306 158.129 151.402 151.303C153.85 144.648 147.207 128.746 140.924 125.583" stroke="black" stroke-width="2.90044" stroke-linecap="round" stroke-linejoin="round"></path><path d="M163.786 137.252C166.505 136.848 169.148 136.269 170.93 133.68C171.571 124.902 172.194 115.547 170.097 110.103C167.895 105.258 154.596 106.979 152.831 110.342L152.593 119.153C152.279 120.336 154.326 122.078 155.31 121.42L159.499 115.581C161.047 114.765 162.411 114.85 163.548 116.057C164.162 119.914 163.865 123.466 163.548 127.012C162.607 128.288 161.05 128.206 158.309 127.012V129.751" stroke="black" stroke-width="2.90044" stroke-linecap="round" stroke-linejoin="round"></path><path d="M80.626 129.925C81.1523 128.441 82.3475 126.866 82.9835 126.641C84.6571 126.452 86.391 126.384 88.288 126.641C89.6507 127.234 90.6753 131.468 91.4875 132.367C92.157 132.779 93.7368 132.319 94.1818 132.451" stroke="black" stroke-width="2.90044" stroke-linecap="round" stroke-linejoin="round"></path><path d="M81.959 145.45C84.9699 144.651 88.5273 147.179 89.0362 148.883" stroke="black" stroke-width="2.90044" stroke-linecap="round"></path><path fill-rule="evenodd" clip-rule="evenodd" d="M93.7963 81.2795C98.8932 79.0282 104.753 80.0554 110.923 77.3702C114.577 76.6913 123.276 77.2013 128.793 77.4168C129.527 77.2752 129.904 76.2987 128.84 75.4157C120.377 71.938 111.501 72.7268 104.593 74.7641L93.2375 77.9288C91.3179 79.5721 93.1918 81.5341 93.7963 81.2795Z" fill="black"></path><path fill-rule="evenodd" clip-rule="evenodd" d="M99.9609 96.1562L105.045 97.5019L115.063 97.6514L119.548 97.2028L122.838 95.5581L125.978 93.3153L126.277 92.5677L125.679 91.222L118.203 88.082L109.231 86.7363L101.606 87.4839L97.8677 89.8763L95.1763 93.1658L97.5686 95.8572L99.9609 96.1562Z" fill="white"></path><path fill-rule="evenodd" clip-rule="evenodd" d="M102.971 88.0637L102.145 91.3696L105.285 96.3283L110.574 97.32L115.864 96.163L117.351 94.5101L118.508 88.3943L109.417 87.2373L102.971 88.0637Z" fill="#A1CAF1" stroke="black" stroke-width="1.58586"></path><path fill-rule="evenodd" clip-rule="evenodd" d="M102.773 97.6589H118.042C121.976 95.7102 126.922 94.2748 126.599 91.9987C125.591 90.2964 120.64 88.7639 116.594 87.6549C112.836 87.0331 104.657 86.713 101.983 87.6549C98.6681 88.7939 96.613 90.7732 95.4019 93.315C95.9292 95.9124 100.384 96.1973 102.773 97.6589Z" stroke="black" stroke-width="2.79221" stroke-linecap="round" stroke-linejoin="round"></path><path fill-rule="evenodd" clip-rule="evenodd" d="M100.864 87.9839L100.93 89.5635C101.086 91.8278 101.982 94.166 103.892 96.6058L104.418 98.0537L117.384 97.9222L117.911 96.2769L119.161 89.6295L119.293 87.9183L117.647 87.7209L117.911 89.103L117.055 91.9989C116.792 92.5692 116.265 93.3153 115.475 94.2366C113.676 95.3139 109.508 95.9672 107.38 94.3024C106.288 93.4463 104.897 93.0067 103.76 91.1433C103.301 90.4846 103.474 89.4545 103.694 88.6423V87.1943L100.864 87.9839Z" fill="black"></path><path fill-rule="evenodd" clip-rule="evenodd" d="M105.537 86.7334L114.751 86.7994L115.015 88.7738C114.885 90.0523 114.768 91.4819 113.962 92.5912C112.667 93.5227 110.912 93.135 109.618 93.2493C107.271 92.5464 106.319 90.4497 105.34 88.3789L105.537 86.7334Z" fill="black"></path><path fill-rule="evenodd" clip-rule="evenodd" d="M93.0514 89.2374C93.2144 88.6379 98.9824 83.6391 102.773 81.6652C105.154 80.6481 106.558 80.2825 107.907 79.954C110.482 79.7357 110.767 82.9377 108.549 83.3271C107.495 83.5767 106.08 83.7793 105.11 84.0017C104.433 84.1737 103.679 84.4804 103.244 84.7175C102.738 84.9922 103.13 85.9129 103.222 86.4394L102.895 86.9104C100.634 87.4424 99.088 88.7594 97.3113 90.1555L95.4257 90.6103C95.3559 90.0545 94.7228 89.9678 93.9131 90.0285C93.4221 90.0645 92.913 89.7255 93.0514 89.2374Z" fill="black"></path><path d="M75.2739 159.651L79.2762 157.789C80.5184 157.325 92.2094 158.22 93.3308 157.51C95.5116 156.136 97.8533 155.677 99.1016 155.741" stroke="black" stroke-width="2.90044" stroke-linecap="round" stroke-linejoin="round"></path><path d="M95.4717 150.715C97.374 151.538 98.4202 153.366 99.381 155.462L99.5672 159.557" stroke="black" stroke-width="2.90044" stroke-linecap="round"></path><path d="M76.4839 162.722C78.5029 166.781 86.3435 168.267 91.4694 166.817" stroke="black" stroke-width="2.90044" stroke-linecap="round" stroke-linejoin="round"></path></g><defs><clipPath id="clip0_1309_386"><rect width="261.54" height="261.54" fill="white"></rect></clipPath></defs></svg>