<svg id="Layer_1" data-name="Layer 1" xmlns="http://www.w3.org/2000/svg" viewBox="0 0 122.88 25.36"><defs><style>.cls-1{fill:#e61e26;}</style></defs><title>lenovo</title><path class="cls-1" d="M51.5,5.44a8,8,0,0,0-6.28,3.09h0V5.76H39.93V25h5.29v-11A4.13,4.13,0,0,1,49.58,10,4.25,4.25,0,0,1,54,14.07V25h5.29V13.09A7.42,7.42,0,0,0,51.5,5.44ZM71.74,25.36a10,10,0,1,1,.08-19.92,10,10,0,0,1,10.32,10,10.08,10.08,0,0,1-10.4,10Zm0-15.39a5.08,5.08,0,0,0-5.1,5.43,5.26,5.26,0,0,0,5.18,5.43,5.12,5.12,0,0,0,5.1-5.43A5.26,5.26,0,0,0,71.74,10Zm40.75,15.39a10,10,0,1,1,10.39-10,10,10,0,0,1-10.39,10Zm0-15.39c-3,0-5.1,2.24-5.1,5.43a5.25,5.25,0,0,0,5.17,5.43,5.12,5.12,0,0,0,5.1-5.43A5.25,5.25,0,0,0,112.49,10ZM17.39,20.18h-12V0H0V25H17.39V20.18Zm16.9-1.07c-2.22,1.65-3.49,2-5.53,2a5.88,5.88,0,0,1-4.26-1.56L38,14A10.42,10.42,0,0,0,35.71,8.6,9.63,9.63,0,0,0,28.1,5.44a9.86,9.86,0,0,0-10.2,10c0,5.82,4.39,10,10.79,10a12.65,12.65,0,0,0,9-3.68l-3.35-2.57ZM24.13,11.57A4.91,4.91,0,0,1,28.2,9.65a4.42,4.42,0,0,1,4.1,2.7l-9.25,3.83a6.21,6.21,0,0,1,1.08-4.61ZM96.94,5.76,92.16,18.89,87.37,5.76h-6L89.26,25h5.8L103,5.76Z"/></svg>